<svg width="70" height="70" viewBox="0 0 70 70" fill="none" xmlns="http://www.w3.org/2000/svg">
<path d="M65.8616 46.7111C65.4623 45.3315 64.4024 41.667 60.8186 38.6954C59.5163 37.6167 57.0934 35.6082 53.4843 35.4846C53.2505 35.4772 52.2106 35.4602 50.8968 35.702C49.6789 35.1622 48.5954 34.8042 47.7588 34.5784C45.5417 33.9802 43.25 33.7325 40.9453 33.8491L40.7701 33.8582L40.6546 33.9899C40.6341 34.013 38.5896 36.3042 35.3391 36.3042H35.2944C32.3078 36.2849 30.9276 34.135 30.8706 34.0442L30.7567 33.8598L30.5401 33.8491C28.2343 33.7335 25.9437 33.9802 23.7261 34.5784C22.1685 34.9987 19.772 35.8549 17.2008 37.5501C16.4027 38.0762 15.7284 38.5934 15.1149 39.117C11.0139 39.9914 8.09267 43.802 8.45193 48.0881C8.64004 50.3401 9.69401 52.3835 11.4198 53.8427C12.9607 55.1455 14.8725 55.8432 16.8675 55.8426C17.1067 55.8426 17.3469 55.8329 17.5877 55.8125C22.2362 55.4234 25.7018 51.3252 25.3121 46.6767C25.124 44.4253 24.0701 42.3813 22.3443 40.9221C20.7455 39.5703 18.7444 38.878 16.6707 38.9345C16.9806 38.7031 17.3026 38.4717 17.6554 38.2391C20.1342 36.6047 22.4416 35.7797 23.9411 35.376C26.0098 34.8181 28.1478 34.579 30.2966 34.6644C30.7416 35.2691 32.3379 37.111 35.2891 37.1298H35.3401C38.5375 37.1298 40.6315 35.203 41.1528 34.666C43.3172 34.5747 45.4638 34.8149 47.5438 35.376C48.1081 35.5279 48.787 35.7398 49.5462 36.0317C48.1253 36.4664 46.6041 37.2383 45.4928 38.6153C43.107 41.5708 41.6086 44.6392 41.0383 47.735C40.6487 49.8461 40.1639 52.4738 41.7273 54.1356C42.7141 55.1853 44.1346 55.4272 45.1714 55.6035C45.6874 55.6911 46.2119 55.7351 46.7397 55.7351C47.8738 55.7346 49.0229 55.5336 50.1295 55.1375C50.1523 55.139 50.1754 55.1393 50.1982 55.1409C51.2354 55.5959 52.3388 55.8405 53.4612 55.8405C53.6837 55.8405 53.9068 55.8313 54.1298 55.8125C55.0751 55.7336 55.9514 55.4922 56.7512 55.1297C57.0322 55.1103 57.3153 55.0972 57.5943 55.073C59.0019 55.4777 60.4477 55.6647 61.9005 55.6298C63.6075 55.5884 64.6378 55.5637 65.4703 54.9004C67.7126 53.115 66.3195 48.2956 65.8616 46.7111ZM22.7119 52.3115C21.3951 53.8685 19.5511 54.8198 17.5189 54.9902C15.483 55.1611 13.5095 54.528 11.953 53.2123C10.3954 51.8955 9.4441 50.0515 9.27426 48.0193C9.24994 47.7283 9.24658 47.4391 9.25477 47.1514C9.53845 47.2482 9.87084 47.346 10.296 47.4206C10.655 47.4829 11.1903 47.549 11.8514 47.549C12.5979 47.549 13.5046 47.4647 14.4989 47.1959C15.1342 47.0245 16.1973 46.7375 17.3469 45.9098C17.785 45.5943 18.1902 45.2331 18.5552 44.8327C19.1743 45.4035 19.8779 45.8598 20.6518 46.1914C22.1702 46.8415 23.8527 46.8094 24.4906 46.7676C24.654 48.792 24.0239 50.7601 22.7119 52.3115ZM16.2451 39.7746C16.4628 39.7564 16.6794 39.7478 16.8949 39.7478C18.6954 39.7478 20.4207 40.3771 21.8111 41.5526C23.1617 42.6944 24.0544 44.2333 24.379 45.9468C23.7943 45.9789 22.2903 45.9949 20.977 45.4325C20.167 45.0853 19.4436 44.5844 18.8266 43.9432L18.503 43.6067L18.209 43.9695C17.8178 44.4522 17.3652 44.8795 16.8643 45.2401C15.8367 45.9796 14.8644 46.2425 14.2839 46.3994C12.5624 46.8643 11.136 46.7294 10.4379 46.6069C9.97044 46.5252 9.62713 46.4125 9.32911 46.3033C9.52764 44.8947 10.1112 43.5661 11.0522 42.4534C11.7781 41.595 12.6681 40.9287 13.6577 40.4679C14.2426 40.1955 14.86 39.9903 15.5055 39.8731C15.7488 39.8289 15.9955 39.7956 16.2451 39.7746ZM56.5384 54.3165C55.7863 54.6737 54.9593 54.9151 54.061 54.9902C52.7991 55.096 51.5388 54.8616 50.3762 54.3216C49.6958 54.0055 49.0485 53.5858 48.4548 53.0656C46.8881 51.6923 45.9018 49.8112 45.8169 48.0338C45.7669 46.9901 46.0276 45.9324 46.5914 44.8864C47.7657 44.8934 48.9385 44.8499 50.1075 44.7591L50.2332 44.7489C52.3051 44.5876 53.9412 44.4602 55.8422 43.7986C56.9402 43.4165 58.0055 42.9253 59.0138 42.3367C59.9011 43.3058 60.889 44.7999 61.0314 46.7412C61.2418 49.6152 59.5007 52.9096 56.5384 54.3165ZM64.956 54.2544C64.3406 54.7451 63.4667 54.7661 61.8801 54.8043C60.6129 54.8352 59.3459 54.6757 58.1083 54.3487C60.6326 52.5549 62.0568 49.4413 61.8548 46.681C61.6823 44.3259 60.4139 42.577 59.3803 41.5241L59.1508 41.2903L58.8713 41.4606C57.8287 42.0954 56.7183 42.62 55.5713 43.0193C53.7708 43.6454 52.26 43.7631 50.1693 43.926L50.043 43.9357C48.8165 44.0319 47.5766 44.0722 46.3554 44.0588L46.1141 44.0561L45.9932 44.2646C45.2682 45.518 44.9312 46.7993 44.9924 48.0736C45.0881 50.0703 46.1786 52.1685 47.9103 53.6863C48.296 54.0243 48.7028 54.3224 49.1249 54.5834C47.8579 54.9266 46.554 55.002 45.3101 54.7897C44.3367 54.6242 43.1258 54.4184 42.3282 53.5702C41.0512 52.2126 41.4758 49.9133 41.8499 47.8844C42.3949 44.9251 43.8369 41.9809 46.1356 39.1334C47.3923 37.5766 49.2532 36.8757 50.7915 36.5602C51.3281 36.4502 51.824 36.3856 52.2418 36.3504C52.6528 36.3158 52.9912 36.3064 53.2113 36.3064C53.3247 36.3064 53.408 36.308 53.4559 36.3101C56.7833 36.4235 58.9794 38.2439 60.2951 39.3339C63.68 42.1405 64.6889 45.6276 65.0688 46.9412C66.1948 50.8378 66.1572 53.2983 64.956 54.2544ZM21.5746 30.8914L22.0444 31.0693C23.0983 31.4692 24.1147 31.8546 24.9327 31.8546C25.3675 31.8546 25.747 31.7455 26.0458 31.4719C26.5064 31.0511 26.5429 30.2943 26.6187 28.7405C26.6335 28.4436 26.64 28.1444 26.6421 27.8452C28.203 28.9767 29.9159 29.782 31.7456 30.2417C33.1618 30.5975 34.3942 30.6786 35.223 30.6786C35.5895 30.6786 35.8771 30.6625 36.0668 30.648C37.0305 30.5706 38.9256 30.2954 40.7948 29.3145C41.8648 28.7531 42.8394 27.9964 43.6942 27.1045C43.7401 27.7567 43.7809 28.316 43.8132 28.7507C43.9589 30.7023 43.989 31.1086 44.3851 31.4719C44.6845 31.7455 45.0634 31.8546 45.4987 31.8546C46.3167 31.8546 47.3331 31.4692 48.3871 31.0693L48.8568 30.8914C50.5444 30.2562 51.8773 29.7542 52.7561 28.4836C53.1984 27.8456 53.63 26.7256 53.4822 23.2573C53.3962 21.2273 53.3215 19.4747 52.6771 16.9937C51.7489 13.4169 50.5933 8.96563 46.6779 5.50168C44.8011 3.84079 42.7399 2.8194 40.8104 2.19027L40.8094 2.1893L40.8089 2.18977C38.6544 1.48744 36.6703 1.27706 35.2941 1.23598L35.2939 1.23047C35.2692 1.231 35.2408 1.23259 35.2157 1.23322C35.1906 1.23259 35.1622 1.23101 35.1375 1.23047L35.1374 1.23598C32.5283 1.31384 27.727 1.98574 23.7535 5.50169C19.8397 8.96456 18.6836 13.4158 17.7543 16.9937C17.1099 19.4747 17.0352 21.2273 16.9492 23.2573C16.8014 26.7256 17.233 27.8456 17.6748 28.4836C18.5541 29.7542 19.887 30.2562 21.5746 30.8914ZM40.4111 28.5836C38.6724 29.4962 36.9015 29.7531 36.0018 29.8246C35.4234 29.8703 33.8713 29.924 31.9466 29.4408C30.096 28.9759 28.3724 28.1314 26.8129 26.9379C26.1281 25.5955 25.69 24.1675 25.5293 22.6817C25.2557 20.1578 25.8249 18.0402 26.4048 16.6282C28.4998 16.9932 32.2879 17.2023 36.2286 15.2056C39.2776 13.662 41.1689 11.4272 42.2186 9.82451L41.8735 9.59824L42.2202 9.82182C42.2769 9.73394 42.3378 9.62732 42.3993 9.50986C43.858 10.7239 44.9985 12.2726 45.7094 14.0275C46.2995 15.4829 46.464 16.7589 46.5097 17.3893C46.8316 21.8524 44.2669 26.56 40.4111 28.5836ZM46.1308 6.11977C49.8575 9.41711 50.9782 13.7329 51.8784 17.2012C52.5008 19.5972 52.5701 21.2279 52.6577 23.2928C52.8131 26.9508 52.2788 27.7231 52.0773 28.0139C51.3453 29.0727 50.2397 29.4887 48.566 30.1191L48.0941 30.297C46.7843 30.7942 45.4283 31.3069 44.943 30.863C44.8022 30.734 44.7592 30.3357 44.6366 28.6895C44.5915 28.0832 44.5302 27.2431 44.4609 26.2316L44.4519 26.2322C46.4321 23.7505 47.5607 20.4851 47.3331 17.3302C47.2842 16.6508 47.1068 15.2781 46.4748 13.7179C45.6792 11.7543 44.3819 10.0334 42.72 8.70958C42.9397 7.97933 43.0563 6.9858 42.7958 5.71184C42.611 4.80625 42.2311 4.0415 41.8525 3.45728C43.2934 4.06069 44.765 4.91107 46.1308 6.11977ZM17.7737 23.2928C17.8613 21.2279 17.9306 19.5972 18.5536 17.2001C19.4543 13.7319 20.5755 9.41549 24.3006 6.11977C28.107 2.75183 32.7334 2.12618 35.2157 2.05941C36.4981 2.0939 38.3514 2.28145 40.3706 2.91552C40.6927 3.24095 41.6718 4.33167 41.9875 5.87738C42.3765 7.78238 41.797 8.95449 41.5283 9.37226C40.5334 10.8911 38.7421 13.008 35.8556 14.4693C31.9187 16.4643 28.1376 16.1327 26.2344 15.757L25.9109 15.6936L25.7771 15.9957C25.1171 17.4903 24.3952 19.8799 24.708 22.7709C24.8591 24.1654 25.2429 25.5109 25.8269 26.79L25.8002 26.7911C25.8276 27.4253 25.8254 28.0671 25.7921 28.7475C25.7373 29.8644 25.6981 30.6711 25.4884 30.8624C25.0031 31.3074 23.6466 30.7942 22.3373 30.297L21.8654 30.1191C20.1917 29.4887 19.0862 29.0727 18.3536 28.0139C18.1526 27.7231 17.6184 26.9508 17.7737 23.2928ZM16.8025 57.7533C14.6952 57.7533 12.6855 58.0791 10.8518 58.6664C10.6769 58.2267 10.3424 57.6408 9.70906 57.196C9.48494 57.0385 9.01144 56.759 8.35949 56.6564C7.54308 56.5279 6.90619 56.7493 6.43967 56.9111C6.0957 57.031 5.69529 57.2626 4.82406 57.7759C3.61369 58.4875 3.39279 58.6761 3.1762 58.9357C3.01012 59.1346 2.62207 59.6006 2.49254 60.3106C2.36517 61.005 2.55328 61.5473 2.69033 61.9434C2.9035 62.5596 3.21362 63.0722 3.54003 63.4912C2.30205 65.0521 1.52199 66.8484 1.33203 68.7695H2.16127C2.34374 67.0823 3.02669 65.5015 4.09906 64.1108C4.47955 64.4786 4.82276 64.7209 4.99122 64.8269C5.72754 65.2907 6.39883 65.4697 6.73636 65.5358C7.04164 65.5949 7.38346 65.6616 7.74518 65.6616C8.11066 65.6616 8.49655 65.5933 8.8846 65.3805C9.60319 64.9843 9.92459 64.3066 10.0525 63.9379C10.1761 63.58 10.2804 62.9022 9.75797 61.1565C9.65203 60.8018 9.53069 60.4481 9.39915 60.0967C11.5749 59.1337 14.1039 58.5789 16.8025 58.5789C24.4989 58.5789 30.8282 63.0729 31.4443 68.7695H32.2735C31.6652 62.6171 24.9612 57.7533 16.8025 57.7533ZM9.08614 59.3385C9.0282 59.2039 8.97771 59.0668 8.91631 58.9336L8.16708 59.2797C8.22933 59.4148 8.28076 59.5538 8.33924 59.6903C8.4472 59.9425 8.55342 60.1945 8.64791 60.4504C8.7634 60.7633 8.8727 61.0776 8.96683 61.393C9.19847 62.1654 9.43872 63.1865 9.2721 63.6681C9.18342 63.9245 8.96306 64.3948 8.48633 64.657C7.97789 64.937 7.42699 64.8296 6.89168 64.7248C6.61381 64.6705 6.05431 64.5205 5.43085 64.1282C5.28066 64.0334 4.96746 63.8125 4.6249 63.4734C4.44834 63.2987 4.26748 63.0903 4.09217 62.8483C3.85297 62.5182 3.62935 62.1322 3.47073 61.6736C3.35141 61.3296 3.21651 60.9399 3.30465 60.4594C3.39495 59.9628 3.6755 59.6264 3.81041 59.4646C3.94692 59.3001 4.11139 59.1529 5.24274 58.4875C6.0441 58.0156 6.44129 57.785 6.71056 57.691C7.13676 57.5437 7.61994 57.3766 8.23104 57.4722C8.71852 57.5485 9.06894 57.7549 9.23448 57.871C9.68622 58.1886 9.93611 58.6088 10.0712 58.9346C9.73523 59.0595 9.40825 59.196 9.08614 59.3385ZM66.4598 63.4912C66.7862 63.0722 67.0963 62.5595 67.3095 61.9434C67.4466 61.5473 67.6347 61.005 67.5078 60.3111C67.3778 59.6006 66.9897 59.1346 66.8231 58.9357C66.606 58.6751 66.384 58.4869 65.1763 57.7759C64.3051 57.2631 63.9052 57.0315 63.5602 56.9111C63.0931 56.7493 62.4546 56.5274 61.6409 56.6564C60.9884 56.759 60.5149 57.0385 60.2913 57.196C59.6575 57.6408 59.323 58.2267 59.1481 58.6664C57.3144 58.0791 55.3047 57.7533 53.1973 57.7533C45.0386 57.7533 38.3347 62.6172 37.7263 68.7695H38.5556C39.1716 63.0729 45.501 58.5789 53.1973 58.5789C55.896 58.5789 58.4249 59.1337 60.6007 60.0967C60.4694 60.4477 60.348 60.8014 60.2413 61.1565C59.7189 62.9022 59.8237 63.58 59.9473 63.9379C60.0753 64.3066 60.3967 64.9843 61.1158 65.3805C61.5028 65.5933 61.8881 65.6616 62.2541 65.6616C62.6164 65.6616 62.9598 65.5949 63.2662 65.5352C63.601 65.4697 64.2723 65.2907 65.0086 64.8269C65.1771 64.7209 65.5203 64.4786 65.9008 64.1108C66.9732 65.5014 67.6561 67.0823 67.8386 68.7695H68.6678C68.4779 66.8484 67.6978 65.0521 66.4598 63.4912ZM65.375 63.4734C65.0324 63.8125 64.7192 64.0334 64.569 64.1282C63.9455 64.5205 63.386 64.6705 63.106 64.7253C62.5729 64.829 62.0209 64.9365 61.5141 64.657C61.0368 64.3948 60.8164 63.9245 60.7278 63.6681C60.5611 63.1865 60.8014 62.1654 61.0325 61.3936C61.127 61.0775 61.2364 60.7631 61.3518 60.4503C61.4464 60.1942 61.5526 59.9422 61.6604 59.6903C61.719 59.5536 61.7705 59.4142 61.8328 59.2792L61.0825 58.9341C61.0214 59.0669 60.9709 59.204 60.9132 59.3383C60.5913 59.1959 60.2645 59.0594 59.9286 58.9346C60.0638 58.6088 60.3138 58.1886 60.7659 57.871C60.9309 57.7549 61.2813 57.5485 61.7694 57.4722C62.3799 57.376 62.8626 57.5432 63.2893 57.691C63.5596 57.785 63.9563 58.0161 64.7576 58.4875C65.8869 59.1523 66.0524 59.3001 66.1895 59.4646C66.3244 59.6264 66.6049 59.9628 66.6957 60.46C66.7833 60.9399 66.6484 61.3296 66.5291 61.6736C66.3705 62.1322 66.1469 62.5182 65.9077 62.8483C65.7324 63.0903 65.5515 63.2987 65.375 63.4734Z" fill="black"/>
</svg>
