<svg width="70" height="70" viewBox="0 0 70 70" fill="none" xmlns="http://www.w3.org/2000/svg">
<path d="M34.7796 35.077C31.9761 35.077 29.1691 35.077 26.3656 35.077C24.6121 35.077 22.8481 35.028 21.0946 35.077C19.6106 35.119 18.3296 36.12 18.1476 37.6425C17.9901 38.9655 17.9376 40.7575 18.8896 41.79C19.6596 42.6265 20.8251 42.77 21.9801 42.77C22.5576 46.305 23.1351 49.8365 23.7126 53.3715C24.0171 55.2405 24.3216 57.1095 24.6296 58.982C24.9901 61.1975 26.1451 63.1085 28.2941 64.0045C30.2401 64.813 32.7181 64.463 34.7761 64.463C36.3511 64.463 37.9261 64.498 39.5011 64.463C42.4341 64.4 44.8491 62.342 45.3671 59.4545C45.6261 58.009 45.8396 56.5565 46.0776 55.1075C46.7496 50.9845 47.4251 46.8615 48.0971 42.7385C48.3141 42.735 48.5311 42.735 48.7481 42.7315C48.8496 42.728 48.9511 42.7315 49.0561 42.7315C50.9846 42.6265 51.9471 41.16 51.9471 39.3575C51.9471 37.709 51.8981 35.9415 50.0571 35.2695C49.4621 35.0525 48.8601 35.084 48.2406 35.084C47.3026 35.084 46.3681 35.084 45.4301 35.084C42.2136 35.084 38.9971 35.084 35.7771 35.084C35.7771 34.4785 35.7771 33.8765 35.7771 33.271C36.6136 32.5605 37.4501 31.8535 38.2901 31.143C39.5116 33.089 41.8251 34.09 44.0826 33.684C46.7251 33.208 48.6116 30.821 48.6466 28.175C48.6151 25.844 47.1871 23.758 45.0031 22.925C42.8016 22.085 40.2046 22.785 38.7171 24.605C37.4291 26.1835 37.0931 28.364 37.8246 30.2365C37.1421 30.814 36.4596 31.3915 35.7771 31.969C35.7771 29.0465 35.7771 26.1275 35.7771 23.205C36.1551 23.1875 36.5296 23.149 36.9076 23.0825C41.1041 22.3265 44.1071 18.5605 44.1666 14.35C44.1176 10.675 41.8706 7.35696 38.4196 6.03746C34.9091 4.69696 30.7861 5.80296 28.4131 8.71496C26.0786 11.5815 25.7391 15.7115 27.6431 18.8965C29.1691 21.4515 31.8851 23.0265 34.7796 23.205C34.7796 26.4495 34.7796 29.694 34.7796 32.9385C34.7656 32.998 34.7656 33.054 34.7796 33.1065C34.7796 33.1905 34.7796 33.2745 34.7796 33.3585C34.7796 33.929 34.7796 34.503 34.7796 35.077ZM45.5211 52.339C45.2026 54.2885 44.8841 56.2345 44.5656 58.1805C44.2436 60.1545 43.6451 61.9745 41.6886 62.9475C39.8441 63.868 37.2471 63.462 35.2486 63.462C33.7051 63.462 32.1581 63.4935 30.6146 63.462C27.9091 63.4095 26.0506 61.502 25.6201 58.9155C25.3471 57.288 25.0881 55.6605 24.8221 54.033C24.2096 50.2705 23.5936 46.508 22.9776 42.742C23.2541 42.7315 23.5236 42.7245 23.7791 42.7245C26.7366 42.7245 29.6941 42.7245 32.6516 42.7245C37.4606 42.7245 42.2766 42.798 47.0891 42.742C46.5641 45.941 46.0426 49.14 45.5211 52.339ZM48.2721 36.0745C49.1996 36.0745 50.1306 36.071 50.6836 37.016C51.0756 37.681 50.9426 38.612 50.9426 39.354C50.9426 40.579 50.4316 41.657 49.0491 41.7305C48.5906 41.7305 48.1321 41.7305 47.6736 41.7305C43.4596 41.7305 39.2456 41.7305 35.0316 41.7305C30.8176 41.7305 26.6036 41.7305 22.3896 41.7305C22.1656 41.7305 21.9416 41.7305 21.7211 41.7305C21.0771 41.7305 20.4751 41.7725 19.9116 41.363C19.1486 40.8135 19.1171 40.019 19.1171 39.179C19.1171 38.4755 19.0051 37.646 19.3761 37.016C20.1741 35.6545 22.5716 36.0745 23.9016 36.0745C29.6416 36.0745 35.3816 36.0745 41.1216 36.0745C43.5086 36.0745 45.8921 36.0745 48.2721 36.0745ZM39.0811 25.8055C40.0576 24.171 42.0106 23.2785 43.8866 23.6355C46.0671 24.052 47.6211 25.9665 47.6526 28.1715C47.6246 30.0895 46.4381 31.8535 44.6146 32.508C42.7841 33.166 40.7016 32.5885 39.4661 31.087C39.3121 30.898 39.1756 30.6985 39.0531 30.492C39.4871 30.1245 39.9211 29.757 40.3551 29.3895C40.7646 29.5435 41.1776 29.694 41.5871 29.848C41.6571 29.8725 41.7271 29.9005 41.7936 29.925C41.9091 29.967 42.0771 29.9355 42.1786 29.876C42.2836 29.8165 42.3816 29.6975 42.4061 29.5785C42.4691 29.295 42.3221 29.064 42.0596 28.966C41.7796 28.861 41.5031 28.7595 41.2231 28.6545C41.3001 28.5915 41.3736 28.525 41.4506 28.462C41.7271 28.2275 42.0036 27.993 42.2801 27.7585C42.7701 27.342 42.0631 26.642 41.5766 27.055C40.6036 27.881 39.6271 28.707 38.6506 29.533C38.2761 28.301 38.4056 26.9325 39.0811 25.8055ZM29.1866 19.355C27.0866 16.8175 26.8171 13.1215 28.5041 10.297C30.1841 7.48646 33.5336 5.97096 36.7536 6.59046C40.4706 7.30446 43.1166 10.591 43.1691 14.343C43.1236 17.64 41.0796 20.6535 37.9471 21.77C37.2401 22.022 36.5086 22.162 35.7806 22.204C35.7806 21.4235 35.7806 20.643 35.7806 19.859C35.7806 19.117 35.7806 18.3785 35.7806 17.6365C35.7806 16.996 34.7831 16.9925 34.7831 17.6365C34.7831 18.2035 34.7831 18.767 34.7831 19.334C34.6536 19.194 34.5276 19.0575 34.3981 18.9175C34.3386 18.8545 34.2826 18.7915 34.2231 18.7285C34.0446 18.536 33.6946 18.536 33.5196 18.7285C33.3306 18.935 33.3306 19.229 33.5196 19.432C33.9326 19.8765 34.3421 20.3245 34.7551 20.769C34.7656 20.7795 34.7726 20.79 34.7831 20.8005C34.7831 21.266 34.7831 21.7315 34.7831 22.197C32.6446 22.0535 30.5936 21.0595 29.1866 19.355Z" fill="black"/>
</svg>
