<svg width="70" height="70" viewBox="0 0 70 70" fill="none" xmlns="http://www.w3.org/2000/svg">
<path d="M25.5192 32.5224C26.866 32.555 28.2086 33.0954 29.2027 34.0054L28.6489 34.6105C28.1498 34.1536 27.5467 33.8094 26.9018 33.5944C26.9061 33.6384 26.9158 33.6776 26.9158 33.7252C26.9158 34.5623 26.2372 35.2409 25.4001 35.2409C24.563 35.2409 23.8844 34.5623 23.8844 33.7252C23.8844 33.6726 23.8946 33.6289 23.8998 33.5808C23.3149 33.7709 22.7634 34.0672 22.2931 34.458L21.7686 33.8273C22.8055 32.9654 24.1721 32.5003 25.5192 32.5224ZM37.748 46.8202C37.6316 46.8976 37.5363 46.9635 37.4679 47.0354C37.4065 47.0936 37.3577 47.1494 37.3035 47.2124C37.2503 47.2741 37.1897 47.3451 37.0869 47.4402C36.5761 47.9123 35.8514 48.1819 35.0982 48.1611L35.0827 48.9814C35.107 48.9817 35.131 48.9819 35.155 48.9819C36.0923 48.9819 36.9959 48.6418 37.6439 48.0426C37.7774 47.9189 37.8564 47.8273 37.9256 47.7472C37.9606 47.7064 37.9913 47.6695 38.0313 47.6319C38.054 47.6127 38.1285 47.5523 38.2022 47.5032C38.5715 47.2581 39.0781 47.2359 39.0829 47.2356C39.458 47.2287 39.7635 47.3352 39.952 47.4314L40.3242 46.7003C40.0503 46.5609 39.6035 46.3953 39.057 46.4159C39.0268 46.4167 38.316 46.4429 37.748 46.8202ZM33.8984 56.3853C34.0261 56.4752 34.4141 56.7495 34.9548 56.7751C34.9828 56.7764 35.0103 56.7772 35.0375 56.7772C35.5473 56.7772 35.9283 56.5548 36.0706 56.4718C36.4276 56.2662 37.3176 56.0819 39.5272 56.3724L39.634 55.5591C37.6492 55.2988 36.3494 55.3645 35.6437 55.7711C35.5502 55.8256 35.3027 55.9669 34.9937 55.9559C34.692 55.9415 34.4594 55.7773 34.35 55.6998C33.9254 55.405 33.0165 55.0707 30.0371 55.561L30.1706 56.3706C32.778 55.941 33.6149 56.1882 33.8984 56.3853ZM12.9616 41.9682C12.9269 41.3415 12.9151 41.032 13.0275 40.8494C13.1896 40.5864 13.4839 40.4593 13.7023 40.3989L13.4839 39.608C12.9672 39.7509 12.5677 40.0315 12.329 40.4195C12.077 40.8288 12.1015 41.2747 12.1424 42.0136C12.1894 42.8568 12.2177 43.3657 12.5717 43.7852C12.8404 44.104 13.2321 44.3209 13.7042 44.4122L13.8601 43.6069C13.6606 43.5684 13.384 43.4763 13.1987 43.2565C13.0286 43.0549 13.0032 42.7158 12.9616 41.9682ZM41.4631 34.0054L42.0168 34.6105C42.5158 34.1536 43.1189 33.8094 43.7639 33.5944C43.7596 33.6383 43.7499 33.6776 43.7499 33.7252C43.7499 34.5623 44.4285 35.2409 45.2656 35.2409C46.1027 35.2409 46.7813 34.5623 46.7813 33.7252C46.7813 33.673 46.7711 33.6295 46.766 33.5817C47.3509 33.7715 47.9022 34.067 48.3727 34.458L48.8971 33.8273C47.8603 32.9654 46.4859 32.4989 45.1466 32.5224C43.7995 32.555 42.4566 33.0954 41.4631 34.0054ZM56.7594 39.6083L56.5405 40.3986C56.7589 40.4593 57.0534 40.5864 57.2155 40.8494C57.3279 41.032 57.3162 41.3415 57.2812 41.9682C57.2398 42.7158 57.2144 43.0547 57.0443 43.2565C56.8956 43.433 56.6729 43.5508 56.3829 43.6069L56.5383 44.4122C57.0107 44.3211 57.4024 44.1043 57.6713 43.7852C58.0254 43.3655 58.0537 42.8565 58.1004 42.0136C58.1415 41.275 58.1663 40.8291 57.914 40.4192C57.675 40.0315 57.2758 39.7511 56.7594 39.6083ZM60.4399 34.7547C60.9594 35.5453 60.8438 36.8163 60.7903 37.357C60.1738 43.5828 59.8344 47.0121 58.2777 48.598C57.2575 49.6373 55.9566 50.4096 54.4161 50.9007C54.0779 52.5293 53.6739 54.148 53.2046 55.7327C51.9566 59.9467 51.269 62.2679 49.2645 64.2903C47.8392 65.728 45.9398 66.7718 43.6207 67.3955C43.4847 67.4931 43.3465 67.5874 43.2043 67.6756C43.1877 67.6857 42.792 67.93 42.3528 68.1295C41.0954 68.7009 38.6054 68.7695 36.6047 68.7695C36.2653 68.7695 35.9406 68.7677 35.6375 68.7658L34.938 68.7629L34.2584 68.7655C32.1853 68.7783 29.0491 68.7965 27.5811 68.1295C27.1418 67.93 26.7461 67.6857 26.7296 67.6756C26.5968 67.5912 26.4677 67.501 26.34 67.4088L26.3392 67.4118C23.9945 66.7899 22.0771 65.7397 20.6402 64.2903C18.6357 62.2679 17.9482 59.9467 16.7001 55.7327C16.2304 54.1468 15.8264 52.528 15.4885 50.9007C13.948 50.4096 12.6474 49.6372 11.6271 48.5979C10.0703 47.0124 9.73096 43.5831 9.11442 37.357C9.0455 36.6608 8.9188 35.276 9.65006 34.5131C8.95715 28.358 9.69842 22.3583 11.8014 17.151C12.2909 15.9393 13.1098 13.9113 14.7597 11.6024C18.9324 5.76298 24.6874 3.32991 26.968 2.55476C32.4552 0.688571 37.0146 1.27281 38.7304 1.49203C41.6839 1.87013 45.7284 2.38788 48.9265 5.58221C49.59 6.24441 50.1815 6.98886 50.6864 7.79605C51.9625 8.32661 53.1264 9.03741 54.1478 9.91056C57.4863 12.7647 58.4961 16.7441 59.8937 22.2516C60.3821 24.1765 60.7663 25.831 60.8969 28.1188C61.0237 30.3331 60.8681 32.5648 60.4399 34.7547ZM10.4239 34.0612C10.67 33.9868 10.9162 33.959 11.159 33.9793C11.838 34.0353 12.231 34.4343 12.5178 34.7253C12.6121 34.8209 12.7544 34.9654 12.8097 34.9771C13.0126 34.8885 13.2874 33.8442 13.5079 33.0052C13.7303 32.1595 14.0072 31.1075 14.4256 29.9323C14.4644 29.8234 14.8096 28.8432 15.1709 27.6002C15.2793 27.2275 15.3762 26.8843 15.4665 26.4574C15.828 24.7413 15.8398 23.4011 15.847 22.6006L15.8507 22.274C15.8697 21.3066 16.1025 16.3144 18.8362 13.012C22.2124 8.93248 28.3861 8.59817 30.8734 8.63662C31.4683 8.64704 31.8982 8.68682 32.3959 8.73302C33.0667 8.79523 33.8271 8.86573 35.276 8.89483C37.348 8.93755 38.5365 8.8433 39.4914 8.76826C40.0946 8.721 40.6382 8.67854 41.274 8.67854C41.5135 8.67854 41.7658 8.68441 42.0395 8.69857C44.15 8.80751 48.0784 9.00991 50.6981 11.6368C52.5251 13.4691 53.7109 16.437 54.2225 20.4586L54.2457 20.6487C54.3304 21.3443 54.4719 22.5085 54.9891 23.9811C55.3402 24.9802 55.6534 25.5167 55.9562 26.0355C56.1512 26.3695 56.3528 26.715 56.5503 27.1628C57.1634 28.5511 57.0579 30.8354 56.9733 32.6706C56.9359 33.4789 56.8871 34.5373 56.9656 35.0001C56.9899 34.9763 57.0139 34.9525 57.036 34.9309C57.3495 34.6214 57.8232 34.1539 58.6005 34.054C58.9639 34.0068 59.3377 34.049 59.7161 34.1782C60.0707 32.1905 60.1927 30.1703 60.0782 28.1658C59.9513 25.9506 59.5762 24.3351 59.0985 22.4535C57.6876 16.8925 56.7554 13.2189 53.6147 10.5343C52.6276 9.69028 51.4968 9.00751 50.2538 8.50525L50.1283 8.45452L50.0575 8.3389C49.5713 7.54265 48.9956 6.81049 48.347 6.1627C45.3468 3.16596 41.4625 2.66878 38.6265 2.3059C36.9622 2.09282 32.5406 1.52754 27.2318 3.33125C25.0265 4.08103 19.4611 6.43372 15.4272 12.0793C13.8339 14.3089 13.0377 16.2803 12.5619 17.4581C10.5507 22.4382 9.81451 28.1676 10.4239 34.0612ZM52.3523 32.7721L52.3145 33.3491L56.186 31.8929C56.2498 30.3044 56.2618 28.54 55.8 27.4939C55.6209 27.0886 55.4396 26.7781 55.2476 26.4491C54.9405 25.9226 54.5923 25.326 54.2153 24.2529C53.6682 22.6959 53.5202 21.4764 53.4316 20.7475L53.4089 20.5638C52.9208 16.7249 51.8132 13.9169 50.1171 12.2163C47.7206 9.81284 43.9976 9.62086 41.9974 9.51779C41.0494 9.4692 40.3899 9.52073 39.5557 9.58615C38.5827 9.66251 37.3715 9.7565 35.2594 9.71512C33.781 9.68521 32.9708 9.61018 32.3201 9.54983C31.8389 9.50524 31.4235 9.46679 30.8595 9.45691C28.4887 9.41579 22.6177 9.7298 19.468 13.5348C16.9081 16.6274 16.6889 21.3704 16.671 22.2898L16.6673 22.6078C16.6598 23.439 16.6478 24.8302 16.2691 26.6267C16.173 27.0814 16.0715 27.4406 15.9586 27.8293C15.5906 29.0945 15.2382 30.0952 15.1992 30.2053C14.9967 30.7739 14.828 31.3149 14.6824 31.8175L18.3392 33.1648L18.3134 32.7721L18.3182 32.7328C18.3959 32.1246 18.6418 31.6106 19.0293 31.2464C19.5436 30.7633 20.1673 30.656 20.4933 30.6349C21.9449 30.5417 23.4143 30.4867 24.8607 30.4707C26.9154 30.4466 29.0008 30.503 31.056 30.6349H31.0611C31.303 30.6349 31.9724 30.6984 32.5294 31.2554C32.9274 31.6531 33.1469 32.1818 33.1498 32.7443H37.5152C37.5149 32.1887 37.7355 31.656 38.136 31.2554C38.6968 30.6947 39.3718 30.6341 39.6359 30.6341C41.6649 30.503 43.7495 30.4469 45.805 30.4707C47.2515 30.4867 48.7209 30.5417 50.1721 30.6349C50.4984 30.656 51.1222 30.7633 51.6364 31.2466C52.0239 31.6106 52.2698 32.1246 52.3475 32.7328L52.3523 32.7721ZM51.0746 31.8445C50.7473 31.5369 50.3358 31.4674 50.1195 31.4536C48.6827 31.3614 47.228 31.3067 45.7959 31.2909C43.761 31.2674 41.6967 31.3233 39.662 31.4536C39.5096 31.4544 39.0695 31.4819 38.716 31.8354C38.4703 32.081 38.3352 32.4076 38.3352 32.755L38.2946 34.2914C38.2807 34.552 38.2052 36.7659 39.7192 37.7963C39.8121 37.8596 40.0292 38.0075 40.8163 38.2438C42.1957 38.658 43.851 38.8505 45.723 38.8072C45.7433 38.807 47.7823 38.7562 49.5582 38.2198C49.9822 38.0905 50.3165 37.897 50.5222 37.7573C50.731 37.6155 50.9115 37.4932 51.0591 37.2671C51.1956 37.0583 51.2733 36.8049 51.284 36.5341L51.5285 32.7991C51.4869 32.5115 51.3737 32.1251 51.0746 31.8445ZM32.3714 34.3026L32.3308 32.7657C32.3305 32.4076 32.1951 32.081 31.9495 31.8357C31.5959 31.4819 31.1562 31.4544 31.0299 31.4544C28.969 31.3227 26.9044 31.2674 24.8698 31.2909C23.4378 31.3067 21.983 31.3614 20.546 31.4535C20.3299 31.4674 19.9185 31.5369 19.5911 31.8442C19.292 32.1251 19.1788 32.5115 19.1372 32.7991L19.3812 36.5234C19.3924 36.8049 19.4701 37.0583 19.6063 37.2668C19.7542 37.4932 19.9347 37.6155 20.1436 37.7573C20.3492 37.897 20.6835 38.0905 21.1083 38.2201C22.8834 38.7562 24.9224 38.807 24.9427 38.8072C26.8193 38.8483 28.47 38.6577 29.8494 38.2438C30.6376 38.0072 30.8534 37.8596 30.9458 37.7968C32.4581 36.7677 32.3847 34.552 32.3714 34.3026ZM59.5823 35.0113L59.5844 35.008C59.2776 34.8813 58.9821 34.8317 58.7052 34.8674C58.2024 34.932 57.8889 35.2417 57.6123 35.5146C57.4029 35.7213 57.1704 35.9507 56.8761 35.9507C56.8168 35.9507 56.7552 35.9413 56.6905 35.9207C56.0303 35.7093 56.0609 34.664 56.1472 32.7842L52.2557 34.2478L52.1032 36.5768C52.0872 36.9856 51.9635 37.3832 51.7456 37.7159C51.5083 38.0796 51.2169 38.2772 50.983 38.4361C50.7304 38.6075 50.3192 38.8454 49.7961 39.0045C47.9094 39.5749 45.8283 39.6256 45.7407 39.6275C45.5709 39.631 45.4026 39.6328 45.2363 39.6328C43.4798 39.6328 41.9157 39.4304 40.5803 39.0294C39.6716 38.7565 39.3921 38.5658 39.2575 38.4742C37.3716 37.191 37.4591 34.5547 37.4752 34.2583L37.4935 33.5646H33.1722L33.1909 34.2701C33.2165 34.7427 33.2523 37.2195 31.4077 38.4745C31.2742 38.5656 30.9952 38.7562 30.0854 39.0294C28.7501 39.4302 27.1859 39.6328 25.4295 39.6328C25.2631 39.6328 25.0949 39.631 24.9251 39.6275C24.8375 39.6256 22.7563 39.5749 20.8704 39.0048C20.3465 38.8454 19.9353 38.6075 19.6827 38.4361C19.4488 38.2772 19.1575 38.0796 18.9198 37.7157C18.7022 37.3832 18.5786 36.9856 18.562 36.5661L18.3979 34.0604L14.4616 32.6102C14.4051 32.8203 14.3513 33.0237 14.3012 33.2137C13.8882 34.7846 13.6388 35.7328 12.8719 35.7945C12.4505 35.8284 12.1771 35.548 11.9336 35.301C11.6938 35.0578 11.4674 34.8279 11.0917 34.7969C10.8432 34.7754 10.5834 34.8467 10.3126 35.0017C9.74988 35.4378 9.87605 36.724 9.93069 37.2761C10.509 43.118 10.8583 46.6442 12.2124 48.0233C13.0399 48.8661 14.0855 49.5073 15.3043 49.9579C15.2436 49.6399 15.1793 49.322 15.1239 49.0038L15.9319 48.8634C16.3204 51.0956 16.8435 53.3287 17.4868 55.4998C18.7882 59.8944 19.4387 61.9131 21.2229 63.713C22.256 64.755 23.5684 65.574 25.1306 66.1627L25.6487 65.6951C26.1008 66.196 26.611 66.6283 27.1656 66.9805C27.1656 66.9805 27.5306 67.2059 27.9202 67.3829C29.2241 67.9749 32.3743 67.9559 34.2536 67.9455L34.938 67.9426L35.6426 67.9455C37.5387 67.9589 40.7074 67.9765 42.0137 67.3829C42.4032 67.2056 42.7688 66.9805 42.7723 66.9781C43.3314 66.6315 43.8393 66.2011 44.2815 65.6988L44.7985 66.154C46.3502 65.5659 47.6541 64.7497 48.6819 63.713C50.4661 61.9131 51.1166 59.8944 52.418 55.4998C53.0605 53.3311 53.5835 51.0983 53.9729 48.8631L54.7809 49.0041C54.7254 49.3223 54.6612 49.6399 54.6004 49.9579C55.8193 49.5073 56.8651 48.8662 57.6924 48.0233C58.989 46.7024 59.3477 43.6029 59.9738 37.2764C60.0982 36.0171 59.9666 35.2551 59.5823 35.0113ZM38.826 61.5657C38.0738 61.3283 36.4917 61.3347 35.4445 61.3392L35.0979 61.3403L34.7604 61.3392C33.7211 61.3347 32.1492 61.3286 31.3986 61.5657C31.1693 61.638 30.9591 61.7286 30.9556 61.7302C30.6347 61.8719 30.3383 62.0468 30.0748 62.2498L30.5751 62.8997C30.7866 62.7368 31.0264 62.5958 31.2835 62.4821C31.2897 62.4794 31.4598 62.4065 31.6456 62.348C32.2739 62.1496 33.828 62.1555 34.7569 62.1595L35.0979 62.1606L35.4477 62.1595C36.3817 62.1555 37.9491 62.1488 38.5793 62.348C38.7648 62.4065 38.9349 62.4794 38.9408 62.4821C39.2038 62.5953 39.4409 62.7347 39.6452 62.8965L40.1541 62.253C39.8933 62.0468 39.5945 61.8703 39.2655 61.7286C39.2655 61.7286 39.0554 61.638 38.826 61.5657ZM31.0721 47.2356C31.0771 47.2359 31.5837 47.2581 31.9527 47.5032C32.0266 47.5523 32.1011 47.6127 32.1238 47.6319C32.1639 47.6695 32.1946 47.7064 32.2296 47.7472C32.2987 47.8273 32.3778 47.9189 32.5113 48.0426C33.1593 48.6418 34.0629 48.9819 35.0002 48.9819C35.0242 48.9819 35.0482 48.9817 35.0725 48.9814L35.057 48.1611C34.2944 48.1811 33.5788 47.9123 33.0683 47.4402C32.9655 47.3451 32.9049 47.2741 32.8517 47.2124C32.7975 47.1494 32.7484 47.0933 32.6873 47.0354C32.6189 46.9635 32.5236 46.8976 32.4069 46.8201C31.8392 46.4429 31.1284 46.4167 31.099 46.4159C30.5455 46.3943 30.1049 46.5609 29.831 46.7003L30.2032 47.4314C30.3917 47.3352 30.6934 47.2244 31.0721 47.2356ZM20.4148 28.3436L20.4939 29.1601L30.3621 28.2053L30.283 27.3887L20.4148 28.3436ZM39.8625 28.2053L49.7307 29.1601L49.8098 28.3436L39.9416 27.3887L39.8625 28.2053Z" fill="black"/>
</svg>
