<svg width="37" height="37" viewBox="0 0 37 37" fill="none" xmlns="http://www.w3.org/2000/svg">
<path d="M34.6875 2.3125V34.6875H2.3125V2.3125H34.6875ZM35.8438 1.15625H1.15625V35.8438H35.8438V1.15625Z" fill="#414753"/>
<path d="M34.6875 2.3125V34.6875H2.3125V2.3125H34.6875ZM35.8438 1.15625H1.15625V35.8438H35.8438V1.15625Z" fill="#414753"/>
<path d="M26.7904 14.8392C26.7904 19.6642 24.1079 23.2705 20.1524 23.2705C18.8238 23.2705 17.5751 22.5525 17.1473 21.7362C17.1473 21.7362 16.4327 24.5702 16.2824 25.1182C15.7494 27.0515 14.1827 28.9847 14.0613 29.1443C13.9757 29.2541 13.7884 29.2194 13.7687 29.0738C13.7352 28.8275 13.3351 26.3878 13.8057 24.399C14.0416 23.4 15.3875 17.6963 15.3875 17.6963C15.3875 17.6963 14.9955 16.9112 14.9955 15.7503C14.9955 13.9269 16.0523 12.566 17.3681 12.566C18.4874 12.566 19.0273 13.4054 19.0273 14.4125C19.0273 15.5375 18.3116 17.2199 17.9416 18.7773C17.6329 20.0828 18.5961 21.1477 19.883 21.1477C22.214 21.1477 23.783 18.153 23.783 14.6068C23.783 11.9115 21.9677 9.89272 18.6643 9.89272C14.9331 9.89272 12.6078 12.6758 12.6078 15.785C12.6078 16.8568 12.9247 17.613 13.4195 18.1969C13.6462 18.4663 13.6785 18.5738 13.5964 18.8826C13.5363 19.1092 13.4022 19.6538 13.3455 19.87C13.2646 20.1822 13.0114 20.2932 12.7304 20.1776C11.0122 19.4757 10.2109 17.5933 10.2109 15.4774C10.2109 11.9832 13.1582 7.79297 19.0031 7.79297C23.6997 7.79181 26.7904 11.1889 26.7904 14.8392Z" fill="#414753"/>
</svg>
