<svg width="38" height="37" viewBox="0 0 38 37" fill="none" xmlns="http://www.w3.org/2000/svg">
<path d="M35.625 2.3125V34.6875H2.375V2.3125H35.625ZM36.8125 1.15625H1.1875V35.8438H36.8125V1.15625Z" fill="#414753"/>
<path d="M35.625 2.3125V34.6875H2.375V2.3125H35.625ZM36.8125 1.15625H1.1875V35.8438H36.8125V1.15625Z" fill="#414753"/>
<path d="M18.2462 18.7556C17.7165 18.2781 17.1276 17.6086 16.8722 17.0155C16.833 16.9391 16.7547 16.7472 16.8722 16.5946C17.1074 16.2882 17.1466 16.2697 17.4019 15.9829C17.5788 15.7725 17.7154 15.5817 17.6572 15.4094L16.7737 13.1721C16.6953 13.0195 16.4602 12.9998 16.1847 12.9813C15.9495 12.9813 15.6942 12.9813 15.5173 13.0195C15.1242 13.1536 14.3203 14.1861 14.2217 14.9319C14.0056 16.5564 15.5173 18.7175 17.0278 20.0564C18.5395 21.4138 20.8753 22.695 22.5235 22.3319C23.2895 22.1596 24.2704 21.2994 24.3487 20.8981C24.3879 20.7259 24.3689 20.4784 24.3285 20.2483C24.3095 19.9812 24.2502 19.7893 24.0922 19.713L22.0913 18.8134C21.9144 18.7175 21.7374 18.7938 21.5617 19.0054C21.3455 19.2921 21.247 19.4066 20.9929 19.713C20.8551 19.8853 20.7577 19.9997 20.601 20.0182C20.424 20.0564 20.1889 19.9604 20.1497 19.9604C19.5216 19.75 18.796 19.2331 18.2462 18.7556ZM11.652 25.6203L12.7908 22.8094C11.5344 21.3942 10.7697 19.5396 10.7697 17.5126C10.7697 13.0391 14.4984 9.42468 19.0917 9.42468C23.6837 9.42468 27.3935 13.0391 27.3935 17.5126C27.3935 21.9873 23.6837 25.6191 19.0917 25.6191C17.2463 25.6191 15.5589 25.0456 14.1849 24.0512L11.652 25.6203ZM10.2579 22.8661L8.68799 28.985L14.3013 26.499C15.7346 27.2251 17.3627 27.646 19.0905 27.646C24.8214 27.646 29.4728 23.1147 29.4728 17.5126C29.4728 11.9303 24.8214 7.39893 19.0905 7.39893C13.3394 7.39893 8.68799 11.9303 8.68799 17.5126C8.68799 19.4817 9.27699 21.3179 10.2579 22.8661Z" fill="#414753"/>
</svg>
