<svg width="38" height="38" viewBox="0 0 38 38" fill="none" xmlns="http://www.w3.org/2000/svg">
<path d="M35.625 2.375V35.625H2.375V2.375H35.625ZM36.8125 1.1875H1.1875V36.8125H36.8125V1.1875Z" fill="#414753"/>
<path d="M35.625 2.375V35.625H2.375V2.375H35.625ZM36.8125 1.1875H1.1875V36.8125H36.8125V1.1875Z" fill="#414753"/>
<path d="M21.5426 10.8775C19.7269 11.5378 18.5798 13.2419 18.7104 15.1074L18.7543 15.827L18.0276 15.7392C15.3842 15.4019 13.0745 14.256 11.1128 12.3322L10.1533 11.3763L9.90628 12.0817C9.38378 13.6527 9.71747 15.3129 10.8064 16.4291C11.3871 17.0466 11.2565 17.1345 10.2542 16.7664C9.90509 16.6488 9.60109 16.5609 9.5714 16.6049C9.47047 16.7082 9.8184 18.0441 10.0939 18.5725C10.4715 19.3076 11.241 20.026 12.0842 20.4524L12.7967 20.7896L11.9547 20.8039C11.1413 20.8039 11.1128 20.8181 11.1995 21.128C11.4904 22.0828 12.6375 23.0957 13.9153 23.5375L14.8154 23.845L14.0317 24.3153C12.8703 24.9922 11.5047 25.3734 10.139 25.4019C9.48471 25.4161 8.94678 25.4755 8.94678 25.5194C8.94678 25.6655 10.7197 26.4884 11.7505 26.8114C14.8439 27.7662 18.5204 27.3541 21.2802 25.7249C23.2407 24.5647 25.2013 22.2585 26.118 20.026C26.612 18.8374 27.106 16.663 27.106 15.6216C27.106 14.9459 27.15 14.858 27.9634 14.0505C28.4431 13.5803 28.8932 13.0673 28.9799 12.92C29.126 12.641 29.1105 12.641 28.3695 12.8904C27.1345 13.3309 26.96 13.2727 27.5703 12.6113C28.0204 12.141 28.5583 11.2896 28.5583 11.0402C28.5583 10.9963 28.341 11.0699 28.0928 11.2017C27.8316 11.349 27.2509 11.5687 26.8151 11.7005L26.0313 11.951L25.3188 11.4654C24.927 11.2017 24.3748 10.9072 24.0838 10.8194C23.344 10.6139 22.21 10.6424 21.5426 10.8775Z" fill="#414753"/>
</svg>
